<?xml version="1.0" encoding="UTF-8"?>
<svg xmlns="http://www.w3.org/2000/svg" xmlns:xlink="http://www.w3.org/1999/xlink" width="290.46" height="63.74" viewBox="274.71 272.71 290.46 63.74">
<defs>
<clipPath id="clip-0">
<path clip-rule="nonzero" d="M 347 319 L 352 319 L 352 324.136719 L 347 324.136719 Z M 347 319 "/>
</clipPath>
<clipPath id="clip-1">
<path clip-rule="nonzero" d="M 357 319 L 361 319 L 361 324.136719 L 357 324.136719 Z M 357 319 "/>
</clipPath>
<clipPath id="clip-2">
<path clip-rule="nonzero" d="M 279 278 L 322 278 L 322 324.136719 L 279 324.136719 Z M 279 278 "/>
</clipPath>
<clipPath id="clip-3">
<path clip-rule="nonzero" d="M 280 294 L 321 294 L 321 324.136719 L 280 324.136719 Z M 280 294 "/>
</clipPath>
<clipPath id="clip-4">
<path clip-rule="nonzero" d="M 409 278 L 410 278 L 410 324.136719 L 409 324.136719 Z M 409 278 "/>
</clipPath>
</defs>
<path fill-rule="nonzero" fill="rgb(0%, 25.881958%, 50.98114%)" fill-opacity="1" d="M 327.160156 309.03125 L 328.230469 309.03125 L 330.65625 313.472656 L 330.675781 313.472656 L 330.675781 309.03125 L 331.464844 309.03125 L 331.464844 314.542969 L 330.460938 314.542969 L 327.957031 310.007812 L 327.941406 310.007812 L 327.941406 314.542969 L 327.160156 314.542969 Z M 327.160156 309.03125 "/>
<path fill-rule="nonzero" fill="rgb(0%, 25.881958%, 50.98114%)" fill-opacity="1" d="M 335.1875 312.980469 C 335.1875 313.582031 334.804688 314.039062 334.070312 314.039062 C 333.726562 314.039062 333.316406 313.808594 333.316406 313.378906 C 333.316406 312.675781 334.308594 312.613281 334.714844 312.613281 C 334.871094 312.613281 335.027344 312.632812 335.1875 312.632812 Z M 333.023438 311.425781 C 333.324219 311.175781 333.773438 311.027344 334.1875 311.027344 C 334.9375 311.027344 335.1875 311.375 335.1875 312.070312 C 334.898438 312.054688 334.683594 312.054688 334.398438 312.054688 C 333.632812 312.054688 332.527344 312.371094 332.527344 313.378906 C 332.527344 314.257812 333.132812 314.640625 334 314.640625 C 334.679688 314.640625 335.078125 314.269531 335.253906 314.023438 L 335.265625 314.023438 L 335.265625 314.542969 L 335.964844 314.542969 C 335.945312 314.425781 335.929688 314.21875 335.929688 313.753906 L 335.929688 312.089844 C 335.929688 310.996094 335.464844 310.417969 334.308594 310.417969 C 333.796875 310.417969 333.351562 310.574219 332.984375 310.796875 Z M 333.023438 311.425781 "/>
<path fill-rule="nonzero" fill="rgb(0%, 25.881958%, 50.98114%)" fill-opacity="1" d="M 339.328125 311.113281 L 338.257812 311.113281 L 338.257812 313.316406 C 338.257812 313.785156 338.539062 314.039062 338.882812 314.039062 C 339.117188 314.039062 339.273438 313.964844 339.386719 313.894531 L 339.386719 314.53125 C 339.226562 314.582031 338.992188 314.640625 338.757812 314.640625 C 337.996094 314.640625 337.519531 314.277344 337.519531 313.472656 L 337.519531 311.113281 L 336.609375 311.113281 L 336.609375 310.515625 L 337.519531 310.515625 L 337.519531 309.582031 L 338.257812 309.34375 L 338.257812 310.515625 L 339.328125 310.515625 Z M 339.328125 311.113281 "/>
<path fill-rule="nonzero" fill="rgb(0%, 25.881958%, 50.98114%)" fill-opacity="1" d="M 340.355469 314.542969 L 341.097656 314.542969 L 341.097656 310.519531 L 340.355469 310.519531 Z M 340.308594 309.617188 L 341.144531 309.617188 L 341.144531 308.78125 L 340.308594 308.78125 Z M 340.308594 309.617188 "/>
<path fill-rule="nonzero" fill="rgb(0%, 25.881958%, 50.98114%)" fill-opacity="1" d="M 342.972656 312.535156 C 342.972656 311.765625 343.441406 311.027344 344.238281 311.027344 C 345.027344 311.027344 345.496094 311.765625 345.496094 312.535156 C 345.496094 313.25 345.109375 314.039062 344.238281 314.039062 C 343.363281 314.039062 342.972656 313.25 342.972656 312.535156 M 342.1875 312.535156 C 342.1875 313.6875 343.023438 314.640625 344.238281 314.640625 C 345.449219 314.640625 346.289062 313.6875 346.289062 312.535156 C 346.289062 311.308594 345.460938 310.417969 344.238281 310.417969 C 343.003906 310.417969 342.1875 311.308594 342.1875 312.535156 "/>
<path fill-rule="nonzero" fill="rgb(0%, 25.881958%, 50.98114%)" fill-opacity="1" d="M 347.28125 310.519531 L 348 310.519531 L 348 311.160156 L 348.015625 311.160156 C 348.238281 310.695312 348.773438 310.417969 349.332031 310.417969 C 350.375 310.417969 350.847656 311.070312 350.847656 312.152344 L 350.847656 314.542969 L 350.097656 314.542969 L 350.097656 312.457031 C 350.097656 311.523438 349.898438 311.066406 349.246094 311.027344 C 348.402344 311.027344 348.023438 311.699219 348.023438 312.683594 L 348.023438 314.542969 L 347.28125 314.542969 Z M 347.28125 310.519531 "/>
<path fill-rule="nonzero" fill="rgb(0%, 25.881958%, 50.98114%)" fill-opacity="1" d="M 354.5 312.980469 C 354.5 313.582031 354.113281 314.039062 353.378906 314.039062 C 353.035156 314.039062 352.625 313.808594 352.625 313.378906 C 352.625 312.675781 353.621094 312.613281 354.019531 312.613281 C 354.183594 312.613281 354.34375 312.632812 354.5 312.632812 Z M 352.335938 311.425781 C 352.628906 311.175781 353.085938 311.027344 353.5 311.027344 C 354.242188 311.027344 354.5 311.375 354.5 312.070312 C 354.207031 312.054688 354.003906 312.054688 353.707031 312.054688 C 352.941406 312.054688 351.832031 312.371094 351.832031 313.378906 C 351.832031 314.257812 352.449219 314.640625 353.3125 314.640625 C 353.996094 314.640625 354.386719 314.269531 354.5625 314.023438 L 354.574219 314.023438 L 354.574219 314.542969 L 355.273438 314.542969 C 355.253906 314.425781 355.238281 314.21875 355.238281 313.753906 L 355.238281 312.089844 C 355.238281 310.996094 354.777344 310.417969 353.621094 310.417969 C 353.113281 310.417969 352.664062 310.574219 352.292969 310.796875 Z M 352.335938 311.425781 "/>
<path fill-rule="nonzero" fill="rgb(0%, 25.881958%, 50.98114%)" fill-opacity="1" d="M 356.589844 308.621094 L 357.332031 308.621094 L 357.332031 314.546875 L 356.589844 314.546875 Z M 356.589844 308.621094 "/>
<path fill-rule="nonzero" fill="rgb(0%, 25.881958%, 50.98114%)" fill-opacity="1" d="M 365.027344 312.261719 C 365.027344 313.808594 364.246094 314.644531 362.886719 314.644531 C 361.527344 314.644531 360.746094 313.808594 360.746094 312.261719 L 360.746094 309.03125 L 361.535156 309.03125 L 361.535156 312.160156 C 361.535156 313.21875 361.871094 313.945312 362.886719 313.945312 C 363.90625 313.945312 364.238281 313.21875 364.238281 312.160156 L 364.238281 309.03125 L 365.027344 309.03125 Z M 365.027344 312.261719 "/>
<path fill-rule="nonzero" fill="rgb(0%, 25.881958%, 50.98114%)" fill-opacity="1" d="M 366.367188 310.519531 L 367.089844 310.519531 L 367.089844 311.160156 L 367.105469 311.160156 C 367.324219 310.695312 367.867188 310.417969 368.421875 310.417969 C 369.464844 310.417969 369.929688 311.070312 369.929688 312.152344 L 369.929688 314.542969 L 369.1875 314.542969 L 369.1875 312.457031 C 369.1875 311.523438 368.984375 311.066406 368.339844 311.027344 C 367.496094 311.027344 367.109375 311.699219 367.109375 312.683594 L 367.109375 314.542969 L 366.367188 314.542969 Z M 366.367188 310.519531 "/>
<path fill-rule="nonzero" fill="rgb(0%, 25.881958%, 50.98114%)" fill-opacity="1" d="M 371.289062 310.515625 L 372.03125 310.515625 L 372.03125 314.542969 L 371.289062 314.542969 Z M 371.246094 308.78125 L 372.085938 308.78125 L 372.085938 309.617188 L 371.246094 309.617188 Z M 371.246094 308.78125 "/>
<path fill-rule="nonzero" fill="rgb(0%, 25.881958%, 50.98114%)" fill-opacity="1" d="M 375.175781 314.542969 L 374.292969 314.542969 L 372.847656 310.519531 L 373.664062 310.519531 L 374.75 313.808594 L 374.761719 313.808594 L 375.875 310.519531 L 376.625 310.519531 Z M 375.175781 314.542969 "/>
<path fill-rule="nonzero" fill="rgb(0%, 25.881958%, 50.98114%)" fill-opacity="1" d="M 377.859375 312.140625 C 377.917969 311.625 378.21875 311.023438 378.949219 311.023438 C 379.585938 311.023438 379.949219 311.53125 379.949219 312.140625 Z M 380.429688 313.632812 C 380.246094 313.785156 379.675781 314.039062 379.191406 314.039062 C 378.488281 314.039062 377.859375 313.492188 377.859375 312.695312 L 380.742188 312.695312 C 380.742188 311.394531 380.300781 310.417969 378.964844 310.417969 C 377.820312 310.417969 377.070312 311.261719 377.070312 312.457031 C 377.070312 313.773438 377.726562 314.644531 379.160156 314.644531 C 379.824219 314.644531 380.144531 314.480469 380.429688 314.382812 Z M 380.429688 313.632812 "/>
<path fill-rule="nonzero" fill="rgb(0%, 25.881958%, 50.98114%)" fill-opacity="1" d="M 381.730469 310.519531 L 382.425781 310.519531 L 382.425781 311.140625 L 382.445312 311.140625 C 382.644531 310.722656 383.070312 310.417969 383.496094 310.417969 C 383.707031 310.417969 383.828125 310.445312 383.984375 310.480469 L 383.984375 311.140625 C 383.855469 311.082031 383.699219 311.070312 383.578125 311.070312 C 382.90625 311.070312 382.472656 311.699219 382.472656 312.71875 L 382.472656 314.542969 L 381.730469 314.542969 Z M 381.730469 310.519531 "/>
<path fill-rule="nonzero" fill="rgb(0%, 25.881958%, 50.98114%)" fill-opacity="1" d="M 384.507812 313.753906 C 384.796875 313.945312 385.210938 314.042969 385.429688 314.042969 C 385.761719 314.042969 386.1875 313.894531 386.1875 313.460938 C 386.1875 312.726562 384.441406 312.792969 384.441406 311.660156 C 384.441406 310.828125 385.066406 310.417969 385.855469 310.417969 C 386.207031 310.417969 386.492188 310.496094 386.789062 310.574219 L 386.722656 311.226562 C 386.554688 311.125 386.121094 311.023438 385.941406 311.023438 C 385.5625 311.023438 385.230469 311.175781 385.230469 311.507812 C 385.230469 312.328125 386.972656 312.097656 386.972656 313.378906 C 386.972656 314.242188 386.292969 314.644531 385.566406 314.644531 C 385.191406 314.644531 384.808594 314.597656 384.460938 314.425781 Z M 384.507812 313.753906 "/>
<path fill-rule="nonzero" fill="rgb(0%, 25.881958%, 50.98114%)" fill-opacity="1" d="M 387.976562 310.515625 L 388.714844 310.515625 L 388.714844 314.542969 L 387.976562 314.542969 Z M 387.921875 308.78125 L 388.757812 308.78125 L 388.757812 309.617188 L 387.921875 309.617188 Z M 387.921875 308.78125 "/>
<path fill-rule="nonzero" fill="rgb(0%, 25.881958%, 50.98114%)" fill-opacity="1" d="M 392.207031 311.113281 L 391.144531 311.113281 L 391.144531 313.316406 C 391.144531 313.785156 391.425781 314.039062 391.773438 314.039062 C 392 314.039062 392.164062 313.964844 392.277344 313.894531 L 392.277344 314.53125 C 392.109375 314.582031 391.886719 314.640625 391.644531 314.640625 C 390.875 314.640625 390.402344 314.277344 390.402344 313.472656 L 390.402344 311.113281 L 389.5 311.113281 L 389.5 310.515625 L 390.402344 310.515625 L 390.402344 309.582031 L 391.144531 309.34375 L 391.144531 310.515625 L 392.207031 310.515625 Z M 392.207031 311.113281 "/>
<path fill-rule="nonzero" fill="rgb(0%, 25.881958%, 50.98114%)" fill-opacity="1" d="M 392.847656 315.636719 C 392.941406 315.667969 393.0625 315.695312 393.191406 315.695312 C 393.855469 315.695312 394.082031 314.78125 394.082031 314.703125 C 394.082031 314.613281 393.980469 314.410156 393.933594 314.277344 L 392.566406 310.519531 L 393.382812 310.519531 L 394.464844 313.851562 L 394.480469 313.851562 L 395.582031 310.519531 L 396.332031 310.519531 L 394.847656 314.632812 C 394.578125 315.402344 394.277344 316.296875 393.304688 316.296875 C 393.0625 316.296875 392.929688 316.261719 392.792969 316.242188 Z M 392.847656 315.636719 "/>
<path fill-rule="nonzero" fill="rgb(0%, 25.881958%, 50.98114%)" fill-opacity="1" d="M 327.617188 321.863281 C 327.617188 321.097656 328.078125 320.351562 328.878906 320.351562 C 329.667969 320.351562 330.128906 321.097656 330.128906 321.863281 C 330.128906 322.585938 329.75 323.378906 328.878906 323.378906 C 328.003906 323.378906 327.617188 322.585938 327.617188 321.863281 M 326.824219 321.863281 C 326.824219 323.019531 327.660156 323.972656 328.878906 323.972656 C 330.082031 323.972656 330.917969 323.019531 330.917969 321.863281 C 330.917969 320.636719 330.105469 319.753906 328.878906 319.753906 C 327.648438 319.753906 326.824219 320.636719 326.824219 321.863281 "/>
<path fill-rule="nonzero" fill="rgb(0%, 25.881958%, 50.98114%)" fill-opacity="1" d="M 332.402344 320.453125 L 331.457031 320.453125 L 331.457031 319.847656 L 332.402344 319.847656 L 332.402344 319.476562 C 332.402344 318.503906 332.65625 317.859375 333.75 317.859375 C 333.9375 317.859375 334.097656 317.882812 334.246094 317.90625 L 334.214844 318.503906 C 334.128906 318.476562 333.988281 318.457031 333.859375 318.457031 C 333.21875 318.457031 333.144531 318.867188 333.144531 319.417969 L 333.144531 319.847656 L 334.207031 319.847656 L 334.207031 320.453125 L 333.144531 320.453125 L 333.144531 323.878906 L 332.402344 323.878906 Z M 332.402344 320.453125 "/>
<path fill-rule="nonzero" fill="rgb(0%, 25.881958%, 50.98114%)" fill-opacity="1" d="M 339.542969 319.195312 C 339.136719 319.042969 338.917969 318.964844 338.5 318.964844 C 338.0625 318.964844 337.546875 319.121094 337.546875 319.699219 C 337.546875 320.757812 339.910156 320.515625 339.910156 322.332031 C 339.910156 323.503906 339.003906 323.972656 337.898438 323.972656 C 337.515625 323.972656 337.136719 323.863281 336.769531 323.746094 L 336.851562 323.011719 C 337.113281 323.121094 337.59375 323.28125 337.996094 323.28125 C 338.445312 323.28125 339.078125 323.023438 339.078125 322.378906 C 339.078125 321.140625 336.707031 321.492188 336.707031 319.773438 C 336.707031 318.789062 337.480469 318.269531 338.472656 318.269531 C 338.839844 318.269531 339.269531 318.335938 339.652344 318.464844 Z M 339.542969 319.195312 "/>
<path fill-rule="nonzero" fill="rgb(0%, 25.881958%, 50.98114%)" fill-opacity="1" d="M 341.011719 319.851562 L 341.75 319.851562 L 341.75 323.878906 L 341.011719 323.878906 Z M 340.964844 318.117188 L 341.800781 318.117188 L 341.800781 318.953125 L 340.964844 318.953125 Z M 340.964844 318.117188 "/>
<path fill-rule="nonzero" fill="rgb(0%, 25.881958%, 50.98114%)" fill-opacity="1" d="M 343.113281 319.851562 L 343.828125 319.851562 L 343.828125 320.488281 L 343.851562 320.488281 C 344.066406 320.035156 344.609375 319.753906 345.15625 319.753906 C 346.210938 319.753906 346.679688 320.402344 346.679688 321.492188 L 346.679688 323.878906 L 345.929688 323.878906 L 345.929688 321.796875 C 345.929688 320.855469 345.722656 320.398438 345.078125 320.351562 C 344.230469 320.351562 343.855469 321.03125 343.855469 322.015625 L 343.855469 323.878906 L 343.113281 323.878906 Z M 343.113281 319.851562 "/>
<g >
<path fill-rule="nonzero" fill="rgb(0%, 25.881958%, 50.98114%)" fill-opacity="1" d="M 349.578125 323.28125 C 348.886719 323.28125 348.460938 322.613281 348.460938 321.851562 C 348.460938 321.164062 348.832031 320.351562 349.578125 320.351562 C 350.371094 320.351562 350.753906 321.070312 350.753906 321.914062 C 350.753906 322.664062 350.273438 323.28125 349.578125 323.28125 M 351.496094 319.851562 L 350.8125 319.851562 L 350.8125 320.453125 L 350.796875 320.453125 C 350.574219 320.019531 350.183594 319.753906 349.46875 319.753906 C 348.253906 319.753906 347.667969 320.863281 347.667969 321.902344 C 347.667969 322.9375 348.238281 323.878906 349.394531 323.878906 C 349.90625 323.878906 350.425781 323.675781 350.738281 323.25 L 350.753906 323.25 L 350.753906 323.652344 C 350.753906 324.5 350.292969 325.027344 349.511719 325.027344 C 348.964844 325.027344 348.625 324.921875 348.050781 324.671875 L 347.976562 325.351562 C 348.625 325.578125 348.992188 325.636719 349.421875 325.636719 C 350.867188 325.636719 351.496094 324.921875 351.496094 323.707031 Z M 351.496094 319.851562 "/>
</g>
<path fill-rule="nonzero" fill="rgb(0%, 25.881958%, 50.98114%)" fill-opacity="1" d="M 355.15625 322.3125 C 355.15625 322.914062 354.765625 323.378906 354.035156 323.378906 C 353.691406 323.378906 353.285156 323.144531 353.285156 322.71875 C 353.285156 322.007812 354.277344 321.941406 354.679688 321.941406 C 354.84375 321.941406 354.996094 321.957031 355.15625 321.957031 Z M 352.996094 320.761719 C 353.292969 320.515625 353.746094 320.351562 354.160156 320.351562 C 354.902344 320.351562 355.15625 320.714844 355.15625 321.40625 C 354.867188 321.390625 354.660156 321.390625 354.363281 321.390625 C 353.597656 321.390625 352.492188 321.707031 352.492188 322.71875 C 352.492188 323.59375 353.101562 323.972656 353.972656 323.972656 C 354.648438 323.972656 355.042969 323.597656 355.222656 323.355469 L 355.234375 323.355469 L 355.234375 323.878906 L 355.925781 323.878906 C 355.910156 323.757812 355.898438 323.546875 355.898438 323.085938 L 355.898438 321.417969 C 355.898438 320.320312 355.425781 319.757812 354.277344 319.757812 C 353.765625 319.757812 353.324219 319.910156 352.953125 320.132812 Z M 352.996094 320.761719 "/>
<g >
<path fill-rule="nonzero" fill="rgb(0%, 25.881958%, 50.98114%)" fill-opacity="1" d="M 360.199219 321.847656 C 360.207031 322.484375 359.878906 323.378906 359.078125 323.378906 C 358.246094 323.378906 357.898438 322.546875 357.898438 321.875 C 357.898438 321.125 358.285156 320.351562 359.085938 320.351562 C 359.894531 320.351562 360.207031 321.125 360.199219 321.847656 M 357.152344 325.535156 L 357.898438 325.535156 L 357.898438 323.324219 L 357.90625 323.324219 C 358.140625 323.695312 358.539062 323.972656 359.257812 323.972656 C 360.464844 323.972656 360.984375 322.898438 360.984375 321.796875 C 360.984375 320.710938 360.410156 319.753906 359.25 319.753906 C 358.53125 319.753906 358.078125 320.121094 357.878906 320.417969 L 357.867188 320.417969 L 357.867188 319.851562 L 357.152344 319.851562 Z M 357.152344 325.535156 "/>
</g>
<path fill-rule="nonzero" fill="rgb(0%, 25.881958%, 50.98114%)" fill-opacity="1" d="M 362.503906 321.863281 C 362.503906 321.097656 362.964844 320.351562 363.761719 320.351562 C 364.554688 320.351562 365.019531 321.097656 365.019531 321.863281 C 365.019531 322.585938 364.632812 323.378906 363.761719 323.378906 C 362.886719 323.378906 362.503906 322.585938 362.503906 321.863281 M 361.714844 321.863281 C 361.714844 323.019531 362.546875 323.972656 363.761719 323.972656 C 364.972656 323.972656 365.808594 323.019531 365.808594 321.863281 C 365.808594 320.636719 364.988281 319.753906 363.761719 319.753906 C 362.53125 319.753906 361.714844 320.636719 361.714844 321.863281 "/>
<path fill-rule="nonzero" fill="rgb(0%, 25.881958%, 50.98114%)" fill-opacity="1" d="M 366.804688 319.851562 L 367.496094 319.851562 L 367.496094 320.480469 L 367.515625 320.480469 C 367.71875 320.054688 368.136719 319.753906 368.570312 319.753906 C 368.789062 319.753906 368.902344 319.78125 369.0625 319.808594 L 369.0625 320.480469 C 368.921875 320.417969 368.769531 320.402344 368.644531 320.402344 C 367.980469 320.402344 367.546875 321.03125 367.546875 322.046875 L 367.546875 323.878906 L 366.804688 323.878906 Z M 366.804688 319.851562 "/>
<path fill-rule="nonzero" fill="rgb(0%, 25.881958%, 50.98114%)" fill-opacity="1" d="M 370.398438 321.472656 C 370.453125 320.960938 370.757812 320.351562 371.476562 320.351562 C 372.121094 320.351562 372.484375 320.863281 372.484375 321.472656 Z M 372.96875 322.972656 C 372.785156 323.121094 372.210938 323.378906 371.722656 323.378906 C 371.027344 323.378906 370.398438 322.824219 370.398438 322.027344 L 373.273438 322.027344 C 373.273438 320.734375 372.835938 319.753906 371.488281 319.753906 C 370.359375 319.753906 369.609375 320.605469 369.609375 321.796875 C 369.609375 323.101562 370.269531 323.972656 371.695312 323.972656 C 372.355469 323.972656 372.683594 323.820312 372.96875 323.710938 Z M 372.96875 322.972656 "/>
<path fill-rule="nonzero" fill="rgb(0%, 25.881958%, 50.98114%)" fill-opacity="1" d="M 378.210938 298.042969 C 379.71875 299.4375 382.699219 300.710938 386.347656 300.765625 C 389.535156 300.820312 392.097656 299.859375 392.261719 297.210938 C 392.601562 291.484375 377.917969 293.777344 378.488281 284.109375 C 378.769531 279.273438 383.578125 277.671875 388.75 277.761719 C 391.554688 277.804688 394.351562 278.46875 395.890625 279.25 L 395.894531 282.6875 C 394.019531 281.402344 391.410156 280.585938 389.253906 280.546875 C 385.96875 280.484375 383.351562 281.089844 383.308594 283.488281 C 383.226562 288.503906 398.039062 287.300781 397.46875 296.890625 C 397.15625 302.285156 391.90625 303.9375 386.414062 303.84375 C 383.257812 303.792969 380.167969 303.15625 378.214844 302.160156 Z M 378.210938 298.042969 "/>
<path fill-rule="nonzero" fill="rgb(0%, 25.881958%, 50.98114%)" fill-opacity="1" d="M 364.320312 303.871094 C 357.496094 303.871094 353.570312 300.808594 353.570312 294.503906 L 353.570312 278.507812 L 358.683594 278.507812 L 358.683594 294.503906 C 358.683594 298.421875 360.5625 300.796875 364.320312 300.796875 C 368.066406 300.796875 369.949219 298.421875 369.949219 294.503906 L 369.949219 278.507812 L 375.066406 278.507812 L 375.066406 294.503906 C 375.066406 300.808594 371.136719 303.871094 364.320312 303.871094 "/>
<path fill-rule="nonzero" fill="rgb(0%, 25.881958%, 50.98114%)" fill-opacity="1" d="M 345.257812 278.507812 L 345.257812 296.523438 L 333.539062 279.78125 C 332.984375 279.007812 332.070312 278.507812 331.046875 278.507812 L 327.167969 278.507812 L 327.167969 303.078125 L 330.578125 303.078125 L 330.578125 285.046875 L 342.28125 301.738281 C 342.832031 302.539062 343.757812 303.078125 344.8125 303.078125 L 348.664062 303.078125 L 348.664062 278.507812 Z M 345.257812 278.507812 "/>
<g >
<path fill-rule="nonzero" fill="rgb(0%, 25.881958%, 50.98114%)" fill-opacity="1" d="M 321.300781 304.042969 L 321.300781 278.609375 L 279.875 278.609375 L 279.875 304.253906 C 279.875 305.453125 280.128906 311.8125 285.242188 319.867188 C 290.824219 328.679688 300.039062 331.394531 300.429688 331.507812 L 300.570312 331.542969 L 300.710938 331.507812 C 301.09375 331.394531 310.339844 328.679688 315.933594 319.867188 C 321.5 311.089844 321.308594 304.324219 321.300781 304.042969 "/>
</g>
<g >
<path fill-rule="nonzero" fill="rgb(100%, 100%, 100%)" fill-opacity="1" d="M 315.035156 319.101562 C 310.011719 327.027344 301.6875 329.910156 300.519531 330.285156 C 299.371094 329.910156 291.070312 327.027344 286.054688 319.101562 C 281.019531 311.183594 280.835938 304.828125 280.835938 303.960938 L 280.835938 294.855469 L 320.246094 294.855469 L 320.246094 303.949219 C 320.246094 304.832031 320.0625 311.183594 315.035156 319.101562 "/>
</g>
<path fill-rule="nonzero" fill="rgb(96.078491%, 50.98114%, 12.156677%)" fill-opacity="1" d="M 299.273438 281.539062 C 299.203125 281.527344 297.519531 281.226562 295.503906 281.226562 C 293.914062 281.226562 292.46875 281.707031 291.835938 281.953125 C 291.203125 281.707031 289.761719 281.226562 288.167969 281.226562 C 286.15625 281.226562 284.472656 281.527344 284.398438 281.539062 L 284.171875 281.578125 L 284.171875 292.300781 L 284.503906 292.230469 C 284.515625 292.226562 285.917969 291.925781 287.96875 291.925781 C 289.507812 291.925781 291.113281 292.359375 291.742188 292.578125 L 291.835938 292.617188 L 291.929688 292.578125 C 292.5625 292.359375 294.160156 291.925781 295.703125 291.925781 C 297.765625 291.925781 299.15625 292.226562 299.167969 292.230469 L 299.503906 292.300781 L 299.503906 281.578125 Z M 299.273438 281.539062 "/>
<path fill-rule="nonzero" fill="rgb(100%, 100%, 100%)" fill-opacity="1" d="M 291.578125 282.449219 C 290.9375 282.210938 289.621094 281.792969 288.179688 281.792969 C 286.625 281.792969 285.25 281.980469 284.738281 282.058594 L 284.738281 290.164062 C 285.273438 290.074219 286.429688 289.910156 287.984375 289.910156 C 289.367188 289.910156 290.757812 290.234375 291.578125 290.484375 Z M 291.578125 282.449219 "/>
<path fill-rule="nonzero" fill="rgb(100%, 100%, 100%)" fill-opacity="1" d="M 295.519531 281.792969 C 294.0625 281.792969 292.730469 282.222656 292.101562 282.457031 L 292.101562 290.484375 C 292.914062 290.234375 294.316406 289.910156 295.714844 289.910156 C 297.269531 289.910156 298.429688 290.074219 298.964844 290.164062 L 298.964844 282.058594 C 298.449219 281.980469 297.078125 281.792969 295.519531 281.792969 "/>
<path fill-rule="nonzero" fill="rgb(0%, 25.881958%, 50.98114%)" fill-opacity="1" d="M 286.261719 283.144531 C 286.066406 283.199219 285.953125 283.386719 286.011719 283.554688 C 286.078125 283.726562 286.289062 283.820312 286.492188 283.769531 C 286.496094 283.769531 287.527344 283.589844 288.402344 283.589844 C 289.199219 283.589844 290.09375 283.945312 290.101562 283.953125 C 290.296875 284.011719 290.515625 283.925781 290.585938 283.757812 C 290.65625 283.59375 290.558594 283.40625 290.367188 283.339844 C 290.324219 283.324219 289.335938 282.933594 288.402344 282.933594 C 287.40625 282.933594 286.308594 283.132812 286.261719 283.144531 "/>
<path fill-rule="nonzero" fill="rgb(0%, 25.881958%, 50.98114%)" fill-opacity="1" d="M 286.261719 284.757812 C 286.066406 284.808594 285.953125 284.996094 286.011719 285.164062 C 286.078125 285.335938 286.289062 285.433594 286.492188 285.382812 C 286.496094 285.378906 287.527344 285.195312 288.402344 285.195312 C 289.199219 285.195312 290.09375 285.554688 290.101562 285.5625 C 290.296875 285.628906 290.515625 285.53125 290.585938 285.371094 C 290.65625 285.199219 290.558594 285.015625 290.367188 284.949219 C 290.324219 284.933594 289.335938 284.542969 288.402344 284.542969 C 287.40625 284.542969 286.308594 284.742188 286.261719 284.757812 "/>
<path fill-rule="nonzero" fill="rgb(0%, 25.881958%, 50.98114%)" fill-opacity="1" d="M 286.261719 286.367188 C 286.066406 286.417969 285.953125 286.605469 286.011719 286.773438 C 286.078125 286.945312 286.289062 287.046875 286.492188 286.996094 C 286.496094 286.988281 287.527344 286.808594 288.402344 286.808594 C 289.199219 286.808594 290.09375 287.164062 290.101562 287.171875 C 290.296875 287.234375 290.515625 287.152344 290.585938 286.980469 C 290.65625 286.8125 290.558594 286.625 290.367188 286.5625 C 290.324219 286.546875 289.335938 286.152344 288.402344 286.152344 C 287.40625 286.152344 286.308594 286.351562 286.261719 286.367188 "/>
<path fill-rule="nonzero" fill="rgb(0%, 25.881958%, 50.98114%)" fill-opacity="1" d="M 286.261719 287.976562 C 286.066406 288.03125 285.953125 288.210938 286.011719 288.382812 C 286.078125 288.554688 286.289062 288.65625 286.492188 288.601562 C 286.496094 288.601562 287.527344 288.414062 288.402344 288.414062 C 289.199219 288.414062 290.09375 288.78125 290.101562 288.78125 C 290.296875 288.84375 290.515625 288.761719 290.585938 288.589844 C 290.65625 288.417969 290.558594 288.234375 290.367188 288.171875 C 290.324219 288.15625 289.335938 287.761719 288.402344 287.761719 C 287.40625 287.761719 286.308594 287.96875 286.261719 287.976562 "/>
<path fill-rule="nonzero" fill="rgb(0%, 25.881958%, 50.98114%)" fill-opacity="1" d="M 297.46875 283.144531 C 297.667969 283.199219 297.777344 283.386719 297.71875 283.554688 C 297.648438 283.726562 297.441406 283.820312 297.25 283.769531 C 297.234375 283.769531 296.207031 283.589844 295.328125 283.589844 C 294.53125 283.589844 293.636719 283.945312 293.632812 283.953125 C 293.433594 284.011719 293.214844 283.925781 293.144531 283.757812 C 293.074219 283.59375 293.167969 283.40625 293.359375 283.339844 C 293.410156 283.324219 294.394531 282.933594 295.328125 282.933594 C 296.324219 282.933594 297.421875 283.132812 297.46875 283.144531 "/>
<path fill-rule="nonzero" fill="rgb(0%, 25.881958%, 50.98114%)" fill-opacity="1" d="M 297.46875 284.757812 C 297.667969 284.808594 297.777344 284.996094 297.71875 285.164062 C 297.648438 285.335938 297.441406 285.433594 297.25 285.382812 C 297.234375 285.378906 296.207031 285.195312 295.328125 285.195312 C 294.53125 285.195312 293.636719 285.554688 293.632812 285.5625 C 293.433594 285.628906 293.214844 285.53125 293.144531 285.371094 C 293.074219 285.199219 293.167969 285.015625 293.359375 284.949219 C 293.410156 284.933594 294.394531 284.542969 295.328125 284.542969 C 296.324219 284.542969 297.421875 284.742188 297.46875 284.757812 "/>
<path fill-rule="nonzero" fill="rgb(0%, 25.881958%, 50.98114%)" fill-opacity="1" d="M 297.46875 286.367188 C 297.667969 286.417969 297.777344 286.605469 297.71875 286.773438 C 297.648438 286.945312 297.441406 287.046875 297.25 286.996094 C 297.234375 286.988281 296.207031 286.808594 295.328125 286.808594 C 294.53125 286.808594 293.636719 287.164062 293.632812 287.171875 C 293.433594 287.234375 293.214844 287.152344 293.144531 286.980469 C 293.074219 286.8125 293.167969 286.625 293.359375 286.5625 C 293.410156 286.546875 294.394531 286.152344 295.328125 286.152344 C 296.324219 286.152344 297.421875 286.351562 297.46875 286.367188 "/>
<path fill-rule="nonzero" fill="rgb(0%, 25.881958%, 50.98114%)" fill-opacity="1" d="M 297.46875 287.976562 C 297.667969 288.03125 297.777344 288.210938 297.71875 288.382812 C 297.648438 288.554688 297.441406 288.65625 297.25 288.601562 C 297.234375 288.601562 296.207031 288.414062 295.328125 288.414062 C 294.53125 288.414062 293.636719 288.78125 293.632812 288.78125 C 293.433594 288.84375 293.214844 288.761719 293.144531 288.589844 C 293.074219 288.417969 293.167969 288.234375 293.359375 288.171875 C 293.410156 288.15625 294.394531 287.761719 295.328125 287.761719 C 296.324219 287.761719 297.421875 287.96875 297.46875 287.976562 "/>
<path fill-rule="nonzero" fill="rgb(0%, 25.881958%, 50.98114%)" fill-opacity="1" d="M 318.464844 302.175781 C 318.257812 301.4375 317.882812 301.105469 317.386719 300.84375 C 316.011719 300.113281 314.21875 300.625 312.648438 301.160156 C 311.457031 301.566406 311.101562 301.6875 309.753906 301.890625 C 308.742188 302.046875 305.339844 302.488281 304.269531 301.601562 C 304.117188 301.476562 303.957031 301.191406 303.945312 301.015625 C 303.914062 300.640625 304.082031 300.203125 304.207031 300.0625 C 304.480469 299.757812 305.117188 299.613281 306.144531 299.613281 L 308.773438 299.660156 C 308.941406 299.878906 309.359375 300.214844 310.429688 300.4375 C 312.132812 300.808594 314 300.21875 314 300.21875 C 314 300.21875 313.691406 300.152344 313.433594 299.957031 C 313.203125 299.792969 313.226562 299.539062 313.226562 299.539062 C 313.226562 299.539062 313.601562 299.714844 314.144531 299.703125 C 314.824219 299.679688 315.140625 299.355469 315.773438 299.199219 C 316.410156 299.03125 317.117188 299.167969 317.117188 299.167969 C 317.117188 299.167969 316.472656 298.484375 315.84375 298.359375 C 315.203125 298.242188 314.410156 298.40625 314.410156 298.40625 C 314.410156 298.40625 314.609375 298.316406 314.851562 298.097656 C 315.035156 297.929688 315.074219 297.640625 315.074219 297.640625 C 315.074219 297.640625 314.316406 297.9375 313.546875 297.890625 C 312.773438 297.851562 312.832031 297.574219 311.335938 297.539062 C 310.207031 297.503906 309.265625 298.179688 308.878906 298.503906 C 307.667969 298.425781 306.714844 298.382812 306.148438 298.382812 C 304.605469 298.382812 303.722656 298.632812 303.171875 299.226562 C 302.722656 299.722656 302.519531 300.355469 302.589844 301.125 C 302.640625 301.726562 302.910156 302.226562 303.382812 302.621094 C 304.824219 303.804688 308.679688 303.441406 310.046875 303.203125 C 311.574219 302.933594 312.027344 302.8125 312.917969 302.519531 L 312.96875 302.503906 C 313.652344 302.273438 315.742188 301.578125 316.609375 302.039062 C 316.789062 302.132812 316.90625 302.3125 316.984375 302.578125 C 317.015625 302.695312 317.035156 302.808594 317.035156 302.90625 C 317.035156 303.09375 316.980469 303.242188 316.863281 303.378906 C 316.070312 304.355469 313.078125 304.515625 311.773438 304.585938 C 311.632812 304.554688 310.761719 304.359375 309.609375 304.355469 C 308.835938 304.347656 308.183594 304.398438 307.503906 304.453125 C 306.253906 304.546875 304.96875 304.640625 302.816406 304.398438 C 301.820312 304.28125 300.886719 304.097656 300.183594 303.894531 C 300.152344 303.625 300.027344 303.371094 299.761719 303.078125 C 300.277344 303.242188 300.945312 302.675781 301.132812 302.390625 C 301.132812 302.363281 300.21875 302.121094 300.164062 301.527344 C 300.160156 301.511719 300.816406 301.582031 301.078125 300.695312 C 300.433594 300.347656 300.636719 300.21875 300.324219 299.78125 C 300.054688 299.394531 299.65625 299.207031 299.167969 299.21875 C 299.363281 299.1875 299.378906 299.21875 299.605469 299.109375 C 299.878906 298.964844 300.078125 298.578125 300.351562 298.597656 C 299.792969 297.714844 298.28125 297.601562 297.648438 297.785156 C 297.816406 297.589844 298.058594 297.363281 298.0625 297.089844 C 297.230469 297.320312 296.410156 296.886719 295.574219 297.042969 C 294.871094 297.171875 294.476562 297.453125 294.261719 298.121094 L 294.222656 298.121094 C 294.003906 297.453125 293.609375 297.171875 292.910156 297.042969 C 292.070312 296.886719 291.246094 297.320312 290.410156 297.089844 C 290.414062 297.363281 290.667969 297.589844 290.824219 297.785156 C 290.203125 297.601562 288.691406 297.714844 288.125 298.597656 C 288.40625 298.578125 288.597656 298.964844 288.878906 299.109375 C 289.128906 299.230469 289.171875 299.207031 289.308594 299.21875 C 288.824219 299.207031 288.429688 299.394531 288.152344 299.78125 C 287.839844 300.21875 288.046875 300.347656 287.398438 300.695312 C 287.664062 301.582031 288.316406 301.511719 288.316406 301.527344 C 288.261719 302.121094 287.347656 302.363281 287.347656 302.390625 C 287.535156 302.675781 288.203125 303.242188 288.714844 303.078125 C 288.296875 303.542969 288.222656 303.90625 288.324219 304.382812 C 287.664062 303.886719 287.023438 303.335938 286.675781 302.882812 C 286.589844 302.761719 286.332031 301.914062 286.164062 301.355469 L 286.023438 300.898438 L 285.957031 300.648438 C 285.75 299.898438 285.558594 299.265625 285.207031 299.179688 C 285.023438 299.136719 284.851562 299.121094 284.699219 299.136719 C 284.582031 298.953125 284.414062 298.757812 284.21875 298.695312 C 283.824219 298.574219 283.628906 298.664062 283.628906 298.664062 C 283.628906 298.664062 283.953125 298.890625 284.058594 299.128906 C 284.09375 299.195312 284.105469 299.25 284.121094 299.300781 C 284.046875 299.34375 283.984375 299.386719 283.925781 299.433594 L 283.898438 299.457031 C 283.855469 299.488281 283.800781 299.535156 283.742188 299.589844 C 283.714844 299.578125 283.691406 299.570312 283.660156 299.566406 C 283.246094 299.511719 283.070312 299.636719 283.070312 299.636719 C 283.070312 299.636719 283.289062 299.746094 283.460938 299.898438 C 283.316406 300.097656 283.199219 300.355469 283.199219 300.671875 C 283.199219 300.703125 283.207031 300.734375 283.207031 300.765625 C 282.8125 300.796875 282.664062 300.941406 282.664062 300.941406 C 282.664062 300.941406 283.046875 301.046875 283.230469 301.222656 C 283.253906 301.25 283.269531 301.269531 283.289062 301.289062 C 283.269531 301.308594 283.257812 301.324219 283.257812 301.324219 C 283.175781 301.453125 283.140625 301.59375 283.140625 301.738281 C 283.140625 302.082031 283.335938 302.457031 283.605469 302.695312 C 283.605469 302.695312 284.308594 303.285156 284.375 303.335938 C 284.660156 303.964844 284.964844 304.511719 285.167969 304.746094 C 285.230469 304.824219 285.664062 305.574219 286.121094 306.363281 C 286.1875 306.464844 286.253906 306.570312 286.308594 306.683594 C 286.414062 307.167969 286.519531 307.769531 286.570312 308.238281 C 286.664062 309.09375 286.574219 310.046875 286.574219 310.046875 C 286.574219 310.046875 287.125 310.011719 287.382812 309.664062 C 287.382812 309.652344 287.582031 310.25 287.558594 310.921875 C 287.53125 311.421875 287.398438 312.113281 287.398438 312.113281 C 287.398438 312.113281 287.929688 311.832031 288.335938 311.472656 C 288.539062 311.285156 288.75 310.996094 288.875 310.796875 C 289.324219 311.085938 290.59375 310.636719 291.226562 310.375 C 291.351562 310.625 291.527344 310.90625 291.753906 311.21875 C 291.851562 310.839844 292.265625 310.652344 292.449219 310.347656 L 292.621094 310.347656 C 292.640625 310.765625 292.523438 311.152344 292.917969 311.933594 C 293.03125 312.152344 293.578125 312.96875 293.976562 313.394531 C 293.824219 314.09375 293.539062 315.394531 293.242188 316.441406 C 292.902344 317.648438 292.628906 318.246094 292.46875 318.527344 C 292.019531 318.554688 291.183594 318.582031 290.925781 318.570312 C 290.292969 318.542969 289.824219 318.667969 289.535156 318.964844 C 289.511719 318.984375 289.496094 319.011719 289.480469 319.027344 C 289.257812 319.0625 289.003906 319.132812 288.863281 319.277344 C 288.589844 319.589844 288.585938 319.796875 288.585938 319.796875 C 288.585938 319.796875 288.9375 319.605469 289.191406 319.605469 L 289.246094 319.605469 L 289.246094 319.660156 C 289.246094 319.71875 289.285156 319.820312 289.34375 319.941406 C 289.300781 319.972656 289.269531 320.007812 289.230469 320.042969 C 288.972656 320.375 288.992188 320.585938 288.992188 320.585938 C 288.992188 320.585938 289.3125 320.375 289.582031 320.351562 C 289.660156 320.480469 289.746094 320.613281 289.84375 320.742188 C 289.835938 320.753906 289.824219 320.769531 289.808594 320.785156 C 289.585938 321.132812 289.613281 321.339844 289.613281 321.339844 C 289.613281 321.339844 289.871094 321.140625 290.109375 321.082031 C 290.191406 321.164062 290.28125 321.253906 290.351562 321.324219 C 290.734375 321.65625 291.679688 321.4375 292.871094 321.125 L 293.613281 320.941406 C 294.132812 320.84375 294.460938 320.636719 294.707031 320.238281 C 294.765625 320.148438 294.8125 319.996094 294.890625 319.753906 L 294.964844 319.542969 C 295.132812 319.078125 295.257812 318.777344 295.585938 318.257812 C 295.601562 318.238281 295.917969 317.722656 296.355469 317.015625 C 296.742188 316.691406 297.210938 316.316406 297.550781 316.089844 C 298.0625 315.742188 299.097656 315.214844 299.097656 315.214844 C 299.097656 315.214844 298.816406 314.765625 298.410156 314.707031 C 298.398438 314.707031 298.933594 314.167969 299.375 313.976562 C 299.875 313.757812 300.519531 313.640625 300.519531 313.640625 C 300.519531 313.640625 300.289062 313.15625 299.921875 312.917969 C 300.078125 312.875 300.214844 312.789062 300.386719 312.675781 C 301.253906 312.109375 301.890625 312.125 302.503906 312.300781 C 302.519531 311.902344 302.425781 311.664062 302.085938 311.429688 C 302.375 311.316406 302.667969 311.207031 302.980469 311.136719 C 303.175781 311.472656 303.402344 311.847656 303.507812 311.996094 C 303.953125 312.632812 304.628906 313.503906 305.175781 314.058594 C 305.183594 314.066406 305.195312 314.09375 305.195312 314.128906 C 305.195312 314.355469 304.917969 314.988281 304.757812 315.347656 L 304.617188 315.664062 C 304.617188 315.664062 304.070312 316.949219 303.914062 317.332031 C 303.585938 317.351562 302.660156 317.40625 302.339844 317.390625 C 301.726562 317.351562 301.265625 317.484375 300.980469 317.765625 C 300.945312 317.804688 300.917969 317.839844 300.886719 317.878906 C 300.660156 317.90625 300.382812 318 300.25 318.175781 C 299.996094 318.503906 300.003906 318.714844 300.003906 318.714844 C 300.003906 318.714844 300.335938 318.5 300.59375 318.484375 C 300.636719 318.476562 300.671875 318.476562 300.710938 318.484375 C 300.71875 318.554688 300.757812 318.652344 300.816406 318.769531 C 300.753906 318.8125 300.699219 318.859375 300.660156 318.921875 C 300.433594 319.269531 300.464844 319.476562 300.464844 319.476562 C 300.464844 319.476562 300.78125 319.230469 301.039062 319.195312 C 301.046875 319.191406 301.054688 319.191406 301.058594 319.191406 C 301.128906 319.289062 301.1875 319.382812 301.261719 319.476562 C 301.234375 319.503906 301.214844 319.53125 301.195312 319.5625 C 300.964844 319.910156 300.996094 320.121094 300.996094 320.121094 C 300.996094 320.121094 301.292969 319.875 301.550781 319.832031 C 301.625 319.933594 301.703125 320.007812 301.78125 320.074219 C 302.140625 320.398438 302.925781 320.207031 303.976562 319.894531 L 304.734375 319.699219 C 305.242188 319.605469 305.5625 319.402344 305.800781 319.019531 L 305.992188 318.589844 C 306.089844 318.375 306.191406 318.128906 306.277344 318 C 306.398438 317.804688 306.523438 317.582031 306.664062 317.328125 C 306.839844 317.175781 307 317.035156 307.117188 316.949219 C 307.453125 316.683594 308.308594 316.210938 308.308594 316.210938 C 308.308594 316.210938 308.140625 315.847656 307.792969 315.808594 C 307.785156 315.808594 308.132812 315.417969 308.539062 315.179688 C 308.847656 315.007812 309.421875 314.90625 309.421875 314.90625 C 309.421875 314.90625 309.019531 314.574219 308.710938 314.4375 C 308.59375 314.378906 308.433594 314.347656 308.277344 314.320312 C 308.261719 314.148438 308.171875 313.949219 308.003906 313.691406 C 307.699219 313.226562 308.140625 312.230469 308.453125 311.664062 C 308.613281 311.886719 308.894531 312.261719 309.375 312.789062 C 309.375 312.789062 310.898438 314.449219 311.238281 314.824219 C 311.175781 315.09375 310.957031 315.925781 310.621094 316.847656 C 310.375 317.511719 310.023438 318.210938 309.851562 318.554688 C 309.480469 318.578125 308.648438 318.613281 308.34375 318.605469 C 307.730469 318.574219 307.269531 318.703125 306.988281 318.992188 C 306.9375 319.035156 306.90625 319.085938 306.871094 319.132812 C 306.664062 319.171875 306.4375 319.269531 306.324219 319.417969 C 306.066406 319.753906 306.082031 319.964844 306.082031 319.964844 C 306.082031 319.964844 306.332031 319.730469 306.675781 319.71875 L 306.722656 319.71875 C 306.734375 319.789062 306.777344 319.890625 306.832031 320 C 306.773438 320.042969 306.722656 320.097656 306.683594 320.15625 C 306.457031 320.507812 306.484375 320.714844 306.484375 320.714844 C 306.484375 320.714844 306.792969 320.46875 307.050781 320.425781 L 307.082031 320.425781 C 307.160156 320.546875 307.246094 320.671875 307.335938 320.789062 C 307.335938 320.792969 307.335938 320.792969 307.332031 320.792969 C 307.101562 321.140625 307.132812 321.355469 307.132812 321.355469 C 307.132812 321.355469 307.367188 321.171875 307.59375 321.097656 C 307.65625 321.171875 307.730469 321.238281 307.785156 321.289062 C 308.148438 321.613281 308.929688 321.421875 309.996094 321.117188 L 310.738281 320.917969 C 311.25 320.824219 311.5625 320.621094 311.800781 320.238281 C 311.898438 320.070312 312.375 318.992188 312.496094 318.671875 C 312.726562 318.105469 312.984375 317.535156 313.234375 317 C 313.359375 316.894531 313.476562 316.796875 313.578125 316.730469 C 313.988281 316.441406 314.882812 315.933594 314.882812 315.933594 C 314.882812 315.933594 314.707031 315.546875 314.363281 315.523438 C 314.359375 315.523438 314.710938 315.179688 315.070312 314.957031 C 315.394531 314.746094 315.992188 314.632812 315.992188 314.632812 C 315.992188 314.632812 315.5625 314.292969 315.257812 314.167969 C 315.082031 314.085938 314.824219 314.039062 314.640625 314.015625 C 314.589844 313.765625 314.464844 313.675781 314.269531 313.578125 C 314.101562 313.492188 313.867188 313.371094 313.507812 312.953125 C 313.050781 312.414062 312.984375 311.378906 312.984375 310.351562 L 312.984375 309.679688 L 312.996094 308.691406 C 312.957031 307.527344 312.789062 306.71875 312.628906 306.1875 C 314.136719 306.046875 316.914062 305.742188 318.050781 304.347656 C 318.390625 303.929688 318.5625 303.441406 318.5625 302.914062 C 318.5625 302.675781 318.53125 302.429688 318.464844 302.175781 "/>
<path fill-rule="nonzero" fill="rgb(96.078491%, 50.98114%, 12.156677%)" fill-opacity="1" d="M 297.21875 301.039062 C 297.460938 300.871094 298.027344 300.402344 297.71875 299.832031 C 297.398438 299.226562 296.664062 299.472656 296.445312 299.5625 C 296.410156 299.535156 294.777344 298.824219 294.753906 298.832031 C 294.777344 298.824219 294.117188 299.589844 294.117188 299.589844 C 294.117188 299.589844 293.472656 298.824219 293.484375 298.832031 C 293.464844 298.824219 291.832031 299.535156 291.800781 299.5625 C 291.582031 299.472656 290.847656 299.226562 290.527344 299.832031 C 290.21875 300.402344 290.789062 300.871094 291.023438 301.039062 L 291.019531 301.046875 C 291.019531 301.046875 290.488281 301.988281 290.496094 301.980469 C 290.507812 301.964844 292.035156 303.832031 292.027344 303.832031 C 292.035156 303.828125 292.027344 305.035156 292.023438 305.039062 C 292.023438 305.039062 292.632812 305.445312 292.6875 305.460938 C 292.777344 305.921875 292.808594 306.152344 292.917969 306.40625 C 292.953125 306.480469 293.535156 306.652344 294.101562 306.664062 L 294.144531 306.664062 C 294.714844 306.652344 295.296875 306.480469 295.328125 306.40625 C 295.4375 306.152344 295.464844 305.921875 295.558594 305.460938 C 295.605469 305.445312 296.214844 305.039062 296.214844 305.039062 L 296.214844 303.832031 C 296.214844 303.832031 297.734375 301.964844 297.75 301.980469 C 297.757812 301.988281 297.222656 301.046875 297.222656 301.046875 Z M 291.929688 301.125 L 293.300781 301.113281 L 293.351562 301.113281 L 293.300781 301.90625 Z M 295.125 301.925781 C 295.132812 301.984375 295.335938 303.828125 295.335938 303.828125 C 295.335938 303.828125 294.339844 304.371094 294.296875 304.402344 C 294.296875 304.453125 294.285156 305.035156 294.285156 305.078125 C 294.332031 305.113281 294.511719 305.246094 294.695312 305.328125 C 295.027344 305.46875 295.375 305.382812 295.378906 305.382812 L 295.464844 305.363281 L 295.386719 305.621094 L 295.355469 305.625 C 295.34375 305.625 294.964844 305.691406 294.65625 305.601562 C 294.382812 305.519531 294.242188 305.414062 294.210938 305.382812 L 294.039062 305.382812 C 294.007812 305.410156 293.859375 305.519531 293.589844 305.601562 C 293.273438 305.691406 292.894531 305.625 292.878906 305.625 L 292.851562 305.621094 L 292.777344 305.363281 L 292.867188 305.382812 C 292.867188 305.382812 293.207031 305.46875 293.546875 305.328125 C 293.730469 305.246094 293.914062 305.113281 293.957031 305.078125 C 293.957031 305.035156 293.957031 304.4375 293.957031 304.386719 C 293.914062 304.359375 292.902344 303.648438 292.902344 303.648438 C 292.902344 303.648438 294.683594 303.644531 294.777344 303.644531 L 294.777344 301.152344 L 296.257812 301.144531 L 296.445312 301.140625 C 296.445312 301.140625 295.171875 301.890625 295.125 301.925781 "/>
<path fill-rule="nonzero" fill="rgb(96.078491%, 50.98114%, 12.156677%)" fill-opacity="1" d="M 307.601562 314.800781 C 307.808594 314.613281 307.90625 314.511719 307.90625 314.378906 C 307.90625 314.265625 307.832031 314.128906 307.683594 313.898438 C 307.566406 313.722656 307.527344 313.507812 307.527344 313.28125 C 307.527344 312.542969 308.011719 311.644531 308.214844 311.324219 C 308.15625 311.25 308.078125 311.148438 307.980469 311.019531 C 307.929688 310.976562 307.882812 310.945312 307.855469 310.929688 C 307.730469 310.835938 307.402344 310.566406 307.199219 310.300781 C 307.175781 310.257812 307.140625 310.210938 307.117188 310.160156 C 306.695312 310.15625 305.714844 310.117188 304.703125 310.425781 C 305.011719 310.609375 305.09375 310.835938 305.101562 311.140625 C 304.441406 310.996094 303.882812 310.984375 303.371094 311.054688 C 303.550781 311.359375 303.730469 311.660156 303.820312 311.777344 C 304.257812 312.398438 304.910156 313.257812 305.445312 313.785156 C 305.523438 313.875 305.5625 313.988281 305.5625 314.125 C 305.5625 314.453125 305.359375 314.917969 305.101562 315.503906 L 304.96875 315.820312 L 304.167969 317.695312 L 304.046875 317.703125 C 303.992188 317.707031 302.730469 317.785156 302.316406 317.765625 C 301.867188 317.742188 301.527344 317.816406 301.308594 317.984375 C 301.339844 318.066406 301.359375 318.183594 301.324219 318.289062 C 301.28125 318.429688 301.191406 318.503906 301.121094 318.542969 C 301.132812 318.554688 301.136719 318.582031 301.15625 318.597656 C 301.398438 318.519531 301.644531 318.496094 301.644531 318.496094 C 301.644531 318.496094 301.78125 318.671875 301.71875 318.902344 C 301.679688 319.074219 301.597656 319.164062 301.535156 319.210938 C 301.554688 319.230469 301.566406 319.261719 301.589844 319.277344 C 301.863281 319.167969 302.171875 319.136719 302.171875 319.136719 C 302.171875 319.136719 302.316406 319.359375 302.269531 319.589844 C 302.238281 319.71875 302.175781 319.792969 302.121094 319.832031 C 302.453125 319.941406 303.332031 319.683594 303.875 319.527344 L 304.664062 319.332031 C 305.074219 319.257812 305.296875 319.113281 305.46875 318.828125 L 305.648438 318.441406 C 305.746094 318.207031 305.851562 317.953125 305.960938 317.800781 C 306.199219 317.425781 306.476562 316.855469 306.738281 316.316406 C 307.082031 315.613281 307.382812 315 307.601562 314.800781 "/>
<path fill-rule="nonzero" fill="rgb(96.078491%, 50.98114%, 12.156677%)" fill-opacity="1" d="M 292.535156 309.941406 L 292.535156 309.960938 L 292.546875 309.960938 C 292.546875 309.953125 292.535156 309.953125 292.535156 309.941406 "/>
<path fill-rule="nonzero" fill="rgb(96.078491%, 50.98114%, 12.156677%)" fill-opacity="1" d="M 290.910156 307.769531 C 290.667969 308.136719 290.21875 308.308594 289.644531 308.378906 C 289.753906 307.8125 289.65625 307.414062 289.449219 306.960938 C 289.261719 306.566406 288.757812 305.78125 288.605469 305.332031 C 288.566406 305.203125 288.523438 305.09375 288.484375 304.980469 C 287.6875 304.398438 286.8125 303.691406 286.375 303.109375 C 286.265625 302.976562 286.109375 302.476562 285.800781 301.464844 L 285.660156 301.007812 L 285.589844 300.753906 C 285.386719 300.003906 285.222656 299.597656 285.117188 299.546875 C 285.035156 299.523438 284.96875 299.519531 284.902344 299.511719 L 284.902344 299.519531 C 284.902344 299.519531 284.867188 299.746094 284.480469 299.726562 C 284.394531 299.726562 284.316406 299.691406 284.261719 299.660156 C 284.21875 299.679688 284.195312 299.703125 284.164062 299.726562 L 284.136719 299.746094 C 284.113281 299.765625 284.097656 299.785156 284.082031 299.796875 C 284.304688 300 284.464844 300.257812 284.464844 300.257812 C 284.464844 300.257812 284.378906 300.496094 284.085938 300.546875 C 283.878906 300.585938 283.714844 300.4375 283.714844 300.4375 C 283.714844 300.4375 283.714844 300.359375 283.683594 300.257812 C 283.59375 300.429688 283.554688 300.628906 283.605469 300.867188 C 283.898438 301.015625 284.152344 301.292969 284.152344 301.292969 C 284.152344 301.292969 284.148438 301.511719 283.84375 301.667969 C 283.726562 301.726562 283.605469 301.691406 283.535156 301.660156 C 283.492188 301.878906 283.625 302.199219 283.855469 302.425781 L 284.683594 303.105469 L 284.707031 303.144531 C 284.964844 303.738281 285.273438 304.292969 285.453125 304.496094 C 285.519531 304.574219 285.765625 304.992188 286.449219 306.171875 C 287.359375 307.734375 288.730469 310.09375 289.085938 310.484375 C 289.226562 310.613281 290.152344 310.398438 291.078125 310.023438 C 290.75 309.113281 291.035156 308.550781 290.910156 307.769531 "/>
<path fill-rule="nonzero" fill="rgb(96.078491%, 50.98114%, 12.156677%)" fill-opacity="1" d="M 318.101562 302.273438 C 317.929688 301.660156 317.644531 301.410156 317.210938 301.171875 C 315.976562 300.515625 314.269531 301.003906 312.769531 301.515625 C 311.496094 301.945312 311.144531 302.0625 309.816406 302.265625 C 308.464844 302.472656 305.195312 302.851562 304.027344 301.886719 C 303.792969 301.699219 303.589844 301.324219 303.570312 301.042969 C 303.535156 300.582031 303.726562 300.03125 303.933594 299.804688 C 304.289062 299.414062 304.972656 299.238281 306.148438 299.238281 C 306.148438 299.238281 307.910156 299.269531 308.886719 299.28125 L 309.089844 299.09375 L 308.890625 298.882812 C 307.667969 298.800781 306.714844 298.761719 306.15625 298.761719 C 304.726562 298.761719 303.929688 298.972656 303.460938 299.480469 C 303.078125 299.894531 302.910156 300.433594 302.96875 301.09375 C 303.011719 301.589844 303.230469 302 303.628906 302.324219 C 304.851562 303.335938 308.4375 303.097656 309.988281 302.828125 C 311.488281 302.5625 311.929688 302.445312 312.796875 302.15625 L 312.84375 302.140625 C 313.648438 301.875 315.769531 301.167969 316.789062 301.707031 C 317.066406 301.847656 317.25 302.105469 317.351562 302.476562 C 317.476562 302.933594 317.414062 303.300781 317.160156 303.617188 C 316.253906 304.726562 313.34375 304.882812 311.777344 304.96875 L 311.742188 304.96875 L 311.714844 304.960938 C 311.707031 304.960938 310.796875 304.734375 309.609375 304.726562 C 308.855469 304.726562 308.214844 304.773438 307.539062 304.828125 C 306.273438 304.917969 304.957031 305.015625 302.773438 304.769531 C 301.804688 304.664062 300.890625 304.484375 300.175781 304.277344 C 300.132812 304.570312 300.011719 304.902344 299.871094 305.328125 C 299.722656 305.777344 299.214844 306.5625 299.03125 306.960938 C 298.820312 307.414062 298.722656 307.808594 298.832031 308.378906 C 298.253906 308.308594 297.8125 308.132812 297.570312 307.769531 C 297.402344 308.847656 298.003906 309.496094 296.722656 311.21875 C 296.597656 310.695312 295.878906 310.535156 295.945312 309.941406 C 295.710938 310.558594 296.074219 310.914062 295.566406 311.933594 C 295.441406 312.191406 294.71875 313.246094 294.328125 313.5625 C 294.171875 314.285156 293.898438 315.523438 293.613281 316.542969 C 293.21875 317.929688 292.90625 318.554688 292.75 318.808594 L 292.695312 318.894531 L 292.59375 318.902344 C 292.179688 318.921875 291.21875 318.953125 290.910156 318.945312 C 290.488281 318.921875 290.152344 318.992188 289.929688 319.128906 C 289.949219 319.234375 289.957031 319.382812 289.898438 319.496094 C 289.820312 319.625 289.710938 319.683594 289.65625 319.703125 C 289.664062 319.730469 289.679688 319.753906 289.691406 319.78125 C 289.96875 319.703125 290.246094 319.699219 290.246094 319.699219 C 290.246094 319.699219 290.363281 319.933594 290.242188 320.214844 C 290.191406 320.332031 290.125 320.382812 290.078125 320.410156 C 290.101562 320.445312 290.128906 320.488281 290.15625 320.523438 C 290.449219 320.398438 290.792969 320.355469 290.792969 320.355469 C 290.792969 320.355469 290.921875 320.53125 290.839844 320.890625 C 290.8125 321.003906 290.75 321.054688 290.699219 321.085938 C 291.085938 321.203125 292.171875 320.917969 292.777344 320.753906 L 293.550781 320.570312 C 293.964844 320.488281 294.203125 320.339844 294.386719 320.042969 C 294.421875 319.980469 294.480469 319.792969 294.539062 319.632812 L 294.609375 319.417969 C 294.777344 318.9375 294.921875 318.609375 295.265625 318.054688 C 296.054688 316.792969 298.382812 312.988281 298.480469 312.683594 L 298.480469 312.625 C 298.480469 312.421875 298.382812 311.976562 298.304688 311.691406 L 298.253906 311.507812 C 298.253906 311.507812 305.800781 309.304688 306.234375 309.175781 C 306.082031 308.910156 305.773438 308.378906 305.773438 308.378906 L 306.046875 308.125 C 306.066406 308.144531 306.652344 308.570312 306.972656 308.882812 C 307.246094 309.160156 307.515625 309.597656 307.804688 310.050781 L 307.949219 310.285156 C 308.273438 310.796875 308.59375 311.175781 308.59375 311.183594 L 308.605469 311.191406 L 308.613281 311.207031 C 308.613281 311.210938 308.867188 311.65625 309.65625 312.53125 L 311.652344 314.71875 L 311.632812 314.808594 C 311.628906 314.824219 311.390625 315.847656 310.984375 316.972656 C 310.707031 317.71875 310.300781 318.515625 310.136719 318.824219 L 310.085938 318.917969 L 309.988281 318.921875 C 309.59375 318.945312 308.671875 319 308.328125 318.976562 C 307.90625 318.960938 307.578125 319.027344 307.367188 319.167969 C 307.394531 319.269531 307.414062 319.417969 307.355469 319.542969 C 307.296875 319.675781 307.199219 319.746094 307.140625 319.78125 C 307.15625 319.792969 307.164062 319.816406 307.175781 319.832031 C 307.421875 319.753906 307.65625 319.730469 307.65625 319.730469 C 307.65625 319.730469 307.785156 319.929688 307.746094 320.175781 C 307.710938 320.339844 307.628906 320.417969 307.566406 320.453125 C 307.589844 320.488281 307.613281 320.519531 307.640625 320.550781 C 307.933594 320.410156 308.308594 320.375 308.308594 320.375 C 308.308594 320.375 308.4375 320.546875 308.398438 320.8125 C 308.375 320.941406 308.292969 321.019531 308.222656 321.070312 C 308.613281 321.117188 309.386719 320.890625 309.886719 320.75 L 310.671875 320.546875 C 311.070312 320.472656 311.300781 320.332031 311.476562 320.039062 C 311.554688 319.910156 311.984375 318.921875 312.152344 318.527344 C 312.628906 317.367188 313.320312 315.902344 313.773438 315.113281 L 314.027344 314.71875 C 314.171875 314.496094 314.304688 314.304688 314.285156 314.171875 C 314.277344 313.996094 314.265625 313.988281 314.101562 313.910156 C 313.914062 313.820312 313.625 313.667969 313.226562 313.191406 C 312.570312 312.433594 312.589844 310.957031 312.613281 309.667969 L 312.613281 308.695312 C 312.578125 307.414062 312.375 306.566406 312.203125 306.078125 L 312.128906 305.847656 L 312.371094 305.828125 C 313.765625 305.699219 316.671875 305.441406 317.765625 304.109375 C 318.179688 303.601562 318.292969 302.96875 318.101562 302.273438 "/>
<path fill-rule="nonzero" fill="rgb(100%, 100%, 100%)" fill-opacity="1" d="M 310.574219 287.269531 C 310.734375 287.492188 310.875 287.722656 310.984375 287.976562 C 310.84375 287.992188 310.710938 288.003906 310.574219 288.003906 C 310.4375 288.003906 310.304688 287.996094 310.171875 287.976562 C 310.269531 287.722656 310.410156 287.492188 310.574219 287.269531 "/>
<path fill-rule="nonzero" fill="rgb(96.078491%, 50.98114%, 12.156677%)" fill-opacity="1" d="M 315.078125 285.128906 C 315.078125 285.078125 315.085938 285.027344 315.085938 284.980469 C 315.085938 282.496094 313.058594 280.472656 310.574219 280.472656 C 308.089844 280.472656 306.066406 282.496094 306.066406 284.980469 L 306.066406 285.128906 C 304.640625 285.886719 303.664062 287.386719 303.664062 289.109375 C 303.664062 291.597656 305.6875 293.621094 308.171875 293.621094 C 309.03125 293.621094 309.851562 293.378906 310.574219 292.925781 C 311.277344 293.359375 312.089844 293.621094 312.972656 293.621094 C 315.464844 293.621094 317.476562 291.597656 317.476562 289.109375 C 317.476562 287.445312 316.539062 285.898438 315.078125 285.128906 M 310.226562 289.460938 L 310.574219 289.488281 C 310.691406 289.488281 310.804688 289.476562 310.921875 289.46875 C 310.875 289.832031 310.757812 290.183594 310.574219 290.5 C 310.398438 290.183594 310.269531 289.839844 310.226562 289.460938 M 312.675781 288.964844 C 313.539062 288.511719 314.226562 287.789062 314.640625 286.902344 C 315.335938 287.425781 315.746094 288.226562 315.746094 289.109375 C 315.746094 290.640625 314.503906 291.886719 312.972656 291.886719 C 312.589844 291.886719 312.222656 291.808594 311.890625 291.664062 C 312.40625 290.914062 312.683594 290.039062 312.683594 289.109375 Z M 308.171875 284.601562 C 308.054688 284.601562 307.941406 284.609375 307.824219 284.621094 C 307.996094 283.246094 309.152344 282.207031 310.574219 282.207031 C 311.976562 282.207031 313.152344 283.265625 313.328125 284.628906 L 312.972656 284.601562 C 312.117188 284.601562 311.296875 284.84375 310.582031 285.292969 C 309.878906 284.851562 309.050781 284.601562 308.171875 284.601562 M 312.972656 286.339844 L 312.984375 286.339844 C 312.804688 286.671875 312.550781 286.957031 312.25 287.183594 C 312.140625 286.964844 312.027344 286.757812 311.894531 286.5625 C 312.234375 286.414062 312.597656 286.339844 312.972656 286.339844 M 306.5 286.90625 C 306.917969 287.789062 307.601562 288.507812 308.472656 288.964844 C 308.472656 289.015625 308.464844 289.0625 308.464844 289.109375 C 308.464844 290.054688 308.761719 290.933594 309.253906 291.660156 C 308.914062 291.808594 308.550781 291.886719 308.171875 291.886719 C 306.640625 291.886719 305.398438 290.640625 305.398438 289.109375 C 305.398438 288.210938 305.832031 287.410156 306.5 286.90625 M 308.894531 287.1875 C 308.59375 286.960938 308.34375 286.671875 308.15625 286.339844 L 308.171875 286.339844 C 308.558594 286.339844 308.921875 286.414062 309.257812 286.5625 C 309.117188 286.761719 309.003906 286.972656 308.894531 287.1875 "/>
<path fill-rule="nonzero" fill="rgb(100%, 100%, 100%)" fill-opacity="1" d="M 311.425781 289.425781 C 311.6875 289.375 311.933594 289.300781 312.164062 289.210938 C 312.152344 290.019531 311.898438 290.785156 311.433594 291.441406 C 311.230469 291.304688 311.046875 291.140625 310.878906 290.960938 C 311.199219 290.5 311.382812 289.976562 311.425781 289.425781 "/>
<path fill-rule="nonzero" fill="rgb(100%, 100%, 100%)" fill-opacity="1" d="M 310.574219 281 C 312.78125 281 314.574219 282.800781 314.574219 285.003906 C 314.574219 287.214844 312.78125 289.011719 310.574219 289.011719 L 310.207031 288.984375 C 310.214844 288.738281 310.261719 288.5 310.335938 288.269531 L 310.574219 288.28125 C 312.386719 288.28125 313.847656 286.8125 313.847656 285.003906 C 313.847656 283.199219 312.386719 281.726562 310.574219 281.726562 C 308.847656 281.726562 307.460938 283.023438 307.3125 284.714844 C 307.058594 284.765625 306.8125 284.839844 306.570312 284.925781 C 306.617188 282.753906 308.394531 281 310.574219 281 "/>
<path fill-rule="nonzero" fill="rgb(100%, 100%, 100%)" fill-opacity="1" d="M 312.972656 285.132812 L 313.335938 285.160156 C 313.328125 285.40625 313.28125 285.644531 313.203125 285.875 L 312.972656 285.859375 C 312.484375 285.859375 312.015625 285.972656 311.574219 286.179688 C 311.40625 285.984375 311.222656 285.804688 311.019531 285.640625 C 311.617188 285.308594 312.285156 285.132812 312.972656 285.132812 "/>
<path fill-rule="nonzero" fill="rgb(100%, 100%, 100%)" fill-opacity="1" d="M 308.171875 293.140625 C 305.96875 293.140625 304.167969 291.34375 304.167969 289.136719 C 304.167969 286.929688 305.96875 285.132812 308.171875 285.132812 C 309.761719 285.132812 311.164062 286.046875 311.820312 287.480469 C 311.605469 287.59375 311.371094 287.671875 311.128906 287.722656 C 310.582031 286.589844 309.441406 285.863281 308.171875 285.863281 C 306.367188 285.863281 304.890625 287.332031 304.890625 289.136719 C 304.890625 290.941406 306.367188 292.410156 308.171875 292.410156 C 308.660156 292.410156 309.140625 292.300781 309.574219 292.097656 C 309.75 292.289062 309.929688 292.464844 310.128906 292.628906 C 309.535156 292.960938 308.863281 293.140625 308.171875 293.140625 "/>
<path fill-rule="nonzero" fill="rgb(100%, 100%, 100%)" fill-opacity="1" d="M 307.613281 286.417969 C 307.855469 286.925781 308.238281 287.375 308.707031 287.691406 C 308.613281 287.933594 308.558594 288.1875 308.519531 288.441406 C 307.820312 288.023438 307.265625 287.40625 306.933594 286.664062 C 307.148438 286.554688 307.375 286.46875 307.613281 286.417969 "/>
<path fill-rule="nonzero" fill="rgb(100%, 100%, 100%)" fill-opacity="1" d="M 312.972656 293.140625 C 310.765625 293.140625 308.96875 291.34375 308.96875 289.136719 C 308.96875 288.296875 309.222656 287.5 309.710938 286.824219 C 309.910156 286.960938 310.09375 287.121094 310.257812 287.304688 C 309.886719 287.847656 309.691406 288.476562 309.691406 289.136719 C 309.691406 290.941406 311.164062 292.410156 312.972656 292.410156 C 314.78125 292.410156 316.253906 290.941406 316.253906 289.136719 C 316.253906 288.046875 315.722656 287.0625 314.839844 286.449219 C 314.921875 286.210938 314.980469 285.957031 315.023438 285.699219 C 316.21875 286.414062 316.976562 287.730469 316.976562 289.136719 C 316.976562 291.34375 315.179688 293.140625 312.972656 293.140625 "/>
<g >
<path fill-rule="nonzero" fill="rgb(0%, 25.881958%, 50.98114%)" fill-opacity="1" d="M 409.167969 278.382812 L 409.910156 278.382812 L 409.910156 331.382812 L 409.167969 331.382812 Z M 409.167969 278.382812 "/>
</g>
<path fill-rule="nonzero" fill="rgb(0%, 25.881958%, 50.98114%)" fill-opacity="1" d="M 422.800781 294.003906 L 434.953125 294.003906 L 434.953125 296.738281 L 425.910156 296.738281 L 425.910156 303.078125 L 434.144531 303.078125 L 434.144531 305.816406 L 425.910156 305.816406 L 425.910156 312.960938 L 434.953125 312.960938 L 434.953125 315.699219 L 422.800781 315.699219 Z M 422.800781 294.003906 "/>
<path fill-rule="nonzero" fill="rgb(0%, 25.881958%, 50.98114%)" fill-opacity="1" d="M 439.085938 299.847656 L 441.914062 299.847656 L 441.914062 302.363281 L 441.976562 302.363281 C 442.414062 301.453125 443.109375 300.746094 444.0625 300.234375 C 445.011719 299.726562 446.050781 299.472656 447.167969 299.472656 C 449.21875 299.472656 450.722656 300.074219 451.675781 301.277344 C 452.628906 302.480469 453.105469 304.144531 453.105469 306.28125 L 453.105469 315.699219 L 450.183594 315.699219 L 450.183594 307.492188 C 450.183594 305.628906 449.945312 304.242188 449.46875 303.328125 C 448.992188 302.417969 448.109375 301.917969 446.828125 301.835938 C 445.996094 301.835938 445.277344 301.996094 444.667969 302.316406 C 444.054688 302.640625 443.554688 303.085938 443.160156 303.65625 C 442.765625 304.222656 442.476562 304.914062 442.289062 305.722656 C 442.101562 306.53125 442.007812 307.410156 442.007812 308.363281 L 442.007812 315.699219 L 439.085938 315.699219 Z M 439.085938 299.847656 "/>
<path fill-rule="nonzero" fill="rgb(0%, 25.881958%, 50.98114%)" fill-opacity="1" d="M 465.9375 302.210938 L 461.742188 302.210938 L 461.742188 310.878906 C 461.742188 311.8125 461.984375 312.515625 462.472656 312.996094 C 462.960938 313.46875 463.535156 313.710938 464.199219 313.710938 C 464.652344 313.710938 465.042969 313.652344 465.363281 313.539062 C 465.683594 313.425781 465.960938 313.292969 466.1875 313.148438 L 466.1875 315.636719 C 465.855469 315.738281 465.476562 315.835938 465.054688 315.929688 C 464.628906 316.023438 464.175781 316.070312 463.699219 316.070312 C 462.1875 316.070312 461 315.703125 460.128906 314.96875 C 459.257812 314.230469 458.820312 313.066406 458.820312 311.46875 L 458.820312 302.210938 L 455.25 302.210938 L 455.25 299.847656 L 458.820312 299.847656 L 458.820312 296.179688 L 461.742188 295.246094 L 461.742188 299.847656 L 465.9375 299.847656 Z M 465.9375 302.210938 "/>
<path fill-rule="nonzero" fill="rgb(0%, 25.881958%, 50.98114%)" fill-opacity="1" d="M 479.300781 306.25 C 479.300781 305.648438 479.214844 305.078125 479.039062 304.539062 C 478.863281 304 478.609375 303.53125 478.277344 303.125 C 477.945312 302.722656 477.53125 302.40625 477.03125 302.179688 C 476.535156 301.949219 475.976562 301.835938 475.355469 301.835938 C 474.628906 301.835938 474.011719 301.972656 473.507812 302.242188 C 473 302.511719 472.574219 302.855469 472.230469 303.28125 C 471.890625 303.707031 471.628906 304.179688 471.457031 304.695312 C 471.277344 305.214844 471.160156 305.730469 471.097656 306.25 Z M 481.199219 315.042969 C 480.90625 315.148438 480.609375 315.257812 480.296875 315.371094 C 479.984375 315.484375 479.640625 315.59375 479.257812 315.699219 C 478.871094 315.800781 478.425781 315.890625 477.917969 315.960938 C 477.410156 316.035156 476.835938 316.070312 476.195312 316.070312 C 474.785156 316.070312 473.566406 315.863281 472.542969 315.449219 C 471.515625 315.035156 470.667969 314.453125 469.992188 313.707031 C 469.320312 312.960938 468.820312 312.0625 468.488281 311.003906 C 468.15625 309.949219 467.988281 308.777344 467.988281 307.492188 C 467.988281 306.3125 468.164062 305.234375 468.519531 304.261719 C 468.871094 303.285156 469.375 302.441406 470.023438 301.726562 C 470.679688 301.011719 471.460938 300.457031 472.371094 300.066406 C 473.28125 299.671875 474.300781 299.472656 475.417969 299.472656 C 476.742188 299.472656 477.851562 299.703125 478.742188 300.160156 C 479.632812 300.613281 480.347656 301.242188 480.886719 302.039062 C 481.425781 302.835938 481.816406 303.785156 482.054688 304.882812 C 482.292969 305.980469 482.410156 307.160156 482.410156 308.425781 L 471.097656 308.425781 C 471.097656 309.210938 471.238281 309.929688 471.515625 310.570312 C 471.796875 311.210938 472.179688 311.765625 472.667969 312.230469 C 473.152344 312.699219 473.714844 313.0625 474.34375 313.320312 C 474.976562 313.578125 475.636719 313.707031 476.316406 313.707031 C 476.796875 313.707031 477.285156 313.652344 477.796875 313.539062 C 478.300781 313.421875 478.777344 313.289062 479.226562 313.132812 C 479.671875 312.980469 480.0625 312.808594 480.40625 312.621094 C 480.746094 312.433594 481.011719 312.269531 481.199219 312.125 Z M 481.199219 315.042969 "/>
<path fill-rule="nonzero" fill="rgb(0%, 25.881958%, 50.98114%)" fill-opacity="1" d="M 485.765625 299.847656 L 488.503906 299.847656 L 488.503906 302.300781 L 488.5625 302.300781 C 488.957031 301.472656 489.53125 300.796875 490.289062 300.265625 C 491.042969 299.738281 491.847656 299.472656 492.699219 299.472656 C 493.132812 299.472656 493.484375 299.496094 493.753906 299.535156 C 494.023438 299.578125 494.3125 299.628906 494.625 299.691406 L 494.625 302.300781 C 494.355469 302.199219 494.078125 302.125 493.800781 302.085938 C 493.519531 302.042969 493.257812 302.023438 493.007812 302.023438 C 491.703125 302.023438 490.65625 302.601562 489.867188 303.761719 C 489.082031 304.921875 488.6875 306.5 488.6875 308.488281 L 488.6875 315.699219 L 485.765625 315.699219 Z M 485.765625 299.847656 "/>
<path fill-rule="nonzero" fill="rgb(0%, 25.881958%, 50.98114%)" fill-opacity="1" d="M 509.261719 307.710938 C 509.28125 307.007812 509.214844 306.300781 509.058594 305.597656 C 508.902344 304.890625 508.648438 304.261719 508.296875 303.703125 C 507.945312 303.140625 507.488281 302.691406 506.929688 302.347656 C 506.371094 302.007812 505.699219 301.835938 504.910156 301.835938 C 504.121094 301.835938 503.433594 302.007812 502.84375 302.347656 C 502.253906 302.691406 501.761719 303.140625 501.367188 303.703125 C 500.972656 304.261719 500.683594 304.898438 500.496094 305.613281 C 500.308594 306.328125 500.21875 307.058594 500.21875 307.804688 C 500.21875 308.464844 500.304688 309.144531 500.480469 309.839844 C 500.65625 310.535156 500.929688 311.171875 501.304688 311.75 C 501.675781 312.332031 502.160156 312.800781 502.75 313.164062 C 503.339844 313.527344 504.050781 313.707031 504.878906 313.707031 C 505.667969 313.707031 506.339844 313.511719 506.898438 313.117188 C 507.457031 312.722656 507.914062 312.234375 508.265625 311.640625 C 508.617188 311.050781 508.878906 310.402344 509.042969 309.699219 C 509.210938 308.996094 509.28125 308.332031 509.261719 307.710938 M 497.296875 299.847656 L 500.09375 299.847656 L 500.09375 302.085938 L 500.15625 302.085938 C 500.339844 301.796875 500.59375 301.496094 500.917969 301.183594 C 501.238281 300.875 501.625 300.59375 502.082031 300.34375 C 502.539062 300.09375 503.050781 299.890625 503.621094 299.722656 C 504.191406 299.558594 504.828125 299.472656 505.53125 299.472656 C 506.671875 299.472656 507.671875 299.691406 508.53125 300.128906 C 509.390625 300.5625 510.105469 301.148438 510.675781 301.882812 C 511.246094 302.617188 511.667969 303.472656 511.949219 304.445312 C 512.230469 305.421875 512.367188 306.4375 512.367188 307.492188 C 512.367188 308.589844 512.238281 309.652344 511.980469 310.679688 C 511.722656 311.703125 511.316406 312.617188 510.769531 313.414062 C 510.21875 314.210938 509.515625 314.851562 508.65625 315.339844 C 507.792969 315.828125 506.765625 316.070312 505.5625 316.070312 C 504.152344 316.070312 503.035156 315.828125 502.207031 315.339844 C 501.378906 314.851562 500.734375 314.246094 500.28125 313.523438 L 500.21875 313.523438 L 500.21875 322.222656 L 497.296875 322.222656 Z M 497.296875 299.847656 "/>
<path fill-rule="nonzero" fill="rgb(0%, 25.881958%, 50.98114%)" fill-opacity="1" d="M 515.726562 299.847656 L 518.460938 299.847656 L 518.460938 302.300781 L 518.523438 302.300781 C 518.917969 301.472656 519.492188 300.796875 520.246094 300.265625 C 521.003906 299.738281 521.804688 299.472656 522.65625 299.472656 C 523.089844 299.472656 523.445312 299.496094 523.710938 299.535156 C 523.980469 299.578125 524.273438 299.628906 524.582031 299.691406 L 524.582031 302.300781 C 524.3125 302.199219 524.039062 302.125 523.757812 302.085938 C 523.480469 302.042969 523.214844 302.023438 522.964844 302.023438 C 521.664062 302.023438 520.617188 302.601562 519.828125 303.761719 C 519.039062 304.921875 518.644531 306.5 518.644531 308.488281 L 518.644531 315.699219 L 515.726562 315.699219 Z M 515.726562 299.847656 "/>
<path fill-rule="nonzero" fill="rgb(0%, 25.881958%, 50.98114%)" fill-opacity="1" d="M 527.628906 299.847656 L 530.550781 299.847656 L 530.550781 315.699219 L 527.628906 315.699219 Z M 530.738281 296.304688 L 527.441406 296.304688 L 527.441406 293.011719 L 530.738281 293.011719 Z M 530.738281 296.304688 "/>
<path fill-rule="nonzero" fill="rgb(0%, 25.881958%, 50.98114%)" fill-opacity="1" d="M 534.15625 312.589844 C 534.445312 312.777344 534.753906 312.941406 535.085938 313.085938 C 535.417969 313.234375 535.75 313.351562 536.082031 313.445312 C 536.414062 313.539062 536.730469 313.605469 537.03125 313.648438 C 537.328125 313.6875 537.582031 313.707031 537.789062 313.707031 C 538.121094 313.707031 538.464844 313.671875 538.816406 313.601562 C 539.167969 313.527344 539.488281 313.402344 539.78125 313.226562 C 540.070312 313.050781 540.308594 312.816406 540.496094 312.527344 C 540.679688 312.238281 540.773438 311.875 540.773438 311.441406 C 540.773438 310.964844 540.605469 310.558594 540.261719 310.226562 C 539.917969 309.898438 539.496094 309.589844 538.988281 309.3125 C 538.480469 309.03125 537.929688 308.757812 537.339844 308.488281 C 536.75 308.21875 536.203125 307.898438 535.695312 307.523438 C 535.1875 307.152344 534.761719 306.714844 534.417969 306.21875 C 534.078125 305.722656 533.90625 305.101562 533.90625 304.355469 C 533.90625 303.527344 534.050781 302.804688 534.34375 302.195312 C 534.632812 301.582031 535.023438 301.074219 535.523438 300.671875 C 536.019531 300.265625 536.609375 299.96875 537.292969 299.769531 C 537.976562 299.574219 538.714844 299.476562 539.5 299.476562 C 540.183594 299.476562 540.816406 299.535156 541.394531 299.660156 C 541.976562 299.785156 542.558594 299.929688 543.136719 300.097656 L 542.886719 302.644531 C 542.722656 302.539062 542.5 302.441406 542.21875 302.347656 C 541.941406 302.253906 541.648438 302.167969 541.351562 302.085938 C 541.050781 302.003906 540.757812 301.941406 540.480469 301.898438 C 540.199219 301.855469 539.976562 301.835938 539.8125 301.835938 C 539.066406 301.835938 538.414062 301.992188 537.855469 302.304688 C 537.292969 302.613281 537.015625 303.101562 537.015625 303.765625 C 537.015625 304.304688 537.1875 304.742188 537.527344 305.082031 C 537.867188 305.425781 538.292969 305.726562 538.800781 305.984375 C 539.308594 306.246094 539.859375 306.503906 540.449219 306.761719 C 541.039062 307.023438 541.585938 307.332031 542.097656 307.695312 C 542.601562 308.058594 543.027344 308.507812 543.371094 309.046875 C 543.710938 309.585938 543.882812 310.28125 543.882812 311.128906 C 543.882812 311.980469 543.726562 312.714844 543.417969 313.335938 C 543.105469 313.957031 542.691406 314.472656 542.171875 314.875 C 541.65625 315.277344 541.066406 315.578125 540.402344 315.773438 C 539.738281 315.972656 539.054688 316.070312 538.351562 316.070312 C 537.605469 316.070312 536.859375 316.015625 536.113281 315.898438 C 535.367188 315.785156 534.664062 315.554688 534 315.199219 Z M 534.15625 312.589844 "/>
<path fill-rule="nonzero" fill="rgb(0%, 25.881958%, 50.98114%)" fill-opacity="1" d="M 557.121094 306.25 C 557.121094 305.648438 557.03125 305.078125 556.855469 304.539062 C 556.679688 304 556.425781 303.53125 556.09375 303.125 C 555.765625 302.722656 555.351562 302.40625 554.851562 302.179688 C 554.355469 301.949219 553.796875 301.835938 553.171875 301.835938 C 552.449219 301.835938 551.832031 301.972656 551.324219 302.242188 C 550.816406 302.511719 550.394531 302.855469 550.050781 303.28125 C 549.707031 303.707031 549.449219 304.179688 549.273438 304.695312 C 549.097656 305.214844 548.980469 305.730469 548.917969 306.25 Z M 559.015625 315.042969 C 558.726562 315.148438 558.425781 315.257812 558.117188 315.371094 C 557.804688 315.484375 557.457031 315.59375 557.074219 315.699219 C 556.691406 315.800781 556.246094 315.890625 555.738281 315.960938 C 555.230469 316.035156 554.65625 316.070312 554.015625 316.070312 C 552.605469 316.070312 551.386719 315.863281 550.363281 315.449219 C 549.335938 315.035156 548.484375 314.453125 547.8125 313.707031 C 547.140625 312.960938 546.636719 312.0625 546.304688 311.003906 C 545.972656 309.949219 545.808594 308.777344 545.808594 307.492188 C 545.808594 306.3125 545.984375 305.234375 546.335938 304.261719 C 546.6875 303.285156 547.191406 302.441406 547.84375 301.726562 C 548.496094 301.011719 549.277344 300.457031 550.191406 300.066406 C 551.101562 299.671875 552.117188 299.472656 553.234375 299.472656 C 554.5625 299.472656 555.671875 299.703125 556.5625 300.160156 C 557.453125 300.613281 558.167969 301.242188 558.707031 302.039062 C 559.246094 302.835938 559.632812 303.785156 559.871094 304.882812 C 560.109375 305.980469 560.230469 307.160156 560.230469 308.425781 L 548.917969 308.425781 C 548.917969 309.210938 549.058594 309.929688 549.335938 310.570312 C 549.617188 311.210938 550 311.765625 550.484375 312.230469 C 550.972656 312.699219 551.53125 313.0625 552.164062 313.320312 C 552.796875 313.578125 553.453125 313.707031 554.136719 313.707031 C 554.613281 313.707031 555.105469 313.652344 555.613281 313.539062 C 556.121094 313.421875 556.597656 313.289062 557.042969 313.132812 C 557.488281 312.980469 557.882812 312.808594 558.226562 312.621094 C 558.566406 312.433594 558.832031 312.269531 559.015625 312.125 Z M 559.015625 315.042969 "/>
</svg>
